<?xml version="1.0" encoding="UTF-8"?>
<svg width="64px" height="64px" viewBox="0 0 64 64" version="1.1" xmlns="http://www.w3.org/2000/svg" xmlns:xlink="http://www.w3.org/1999/xlink">
    <!-- Generator: Sketch 40.3 (33839) - http://www.bohemiancoding.com/sketch -->
    <title>seat-chair</title>
    <desc>Created with Sketch.</desc>
    <defs></defs>
    <g id="Page-1" stroke="none" stroke-width="1" fill="none" fill-rule="evenodd" stroke-linecap="round" stroke-linejoin="round">
        <g id="seats" transform="translate(-90.000000, -10.000000)" stroke-width="2">
            <g id="seat-chair" transform="translate(90.000000, 10.000000)">
                <path d="M16.0041738,59 C18.2110077,59 21.7842933,59 23.990053,59 L40.009947,59 C42.2135924,59 44.5753615,57.3077602 45.2847315,55.2213778 L58.4273001,16.5667645 C59.848163,12.3877559 57.4092877,9 53,9 L48.9962027,9 C46.7891609,9 44.200154,10.599692 43.2105899,12.5788202 L42.7894101,13.4211798 C41.8011462,15.3977076 41.799846,18.599692 42.7894101,20.5788202 L45,25 L40.0059191,25 C38.8980806,25 37.6796214,25.8329844 37.2836219,26.862583 L33.7163781,36.137417 C33.3207334,37.1660932 33.6307648,38.6307648 34.4143185,39.4143185 L39,44 L27.0058587,44 C25.8980535,44 24.7176907,44.8469278 24.3671875,45.8984375 L24.2666304,46.2001088 C23.5670898,48.2987307 21.2081782,50 18.9976305,50 L15.0057983,50 C13.3457418,50 11.4522042,51.2325406 10.7781334,52.7491999 L10.8430343,52.6031729 C9.2728698,56.136043 11.1371845,59 14.9978137,59 L16.0041738,59 Z" id="Path-14" stroke="#000000"></path>
                <path d="M18,45 C18,45 17.0999011,45 15.9989566,45 L15.9989566,45 C15.4472481,45 14.6035932,45.2265182 14.1275986,45.4985151 L10.6065416,47.5105476 C9.16698844,48.3331495 7.30419922,47.840332 6.45606028,46.4267671 L6.54393972,46.5732329 C5.69124536,45.1520756 6.20623365,43.3968832 7.67981648,42.6600918 L13.2122004,39.8938998 C14.1995749,39.4002126 15.9001762,39 16.992017,39 L26,39 L29,33 L22.9775286,32.2471911 C21.8853697,32.1106712 20.5188617,31.2439255 19.9215907,30.3053568 L15.0784093,22.6946432 C14.4828203,21.7587176 14.7151198,20.4636601 15.6039052,19.7970711 L15.6039052,19.7970711 C16.9272318,18.8045761 18.7477726,19.1216589 19.6633666,20.4950499 L24,27 L32,27 C32,27 25.1787634,21.975772 28,18 C31.2021261,12.897015 30.1982323,9.36638726 40,12" id="Path-11" stroke="#9B9B9B"></path>
                <path d="M27,50 L33.9976305,50 C36.2080781,50 38.579596,48.3057964 39.2940168,46.2174892 L51,12" id="Path-15" stroke="#000000"></path>
            </g>
        </g>
    </g>
</svg>